<svg xmlns="http://www.w3.org/2000/svg" viewBox="0 0 512 512" fill="#fbbf24">
  <path d="M400 64h-48V32h-192v32h-48C70.6 64 32 102.6 32 150.4c0 40.6 22.6 76 56.4 94.6C103.7 301.2 154.6 343 216 349.5v58.5h-56c-13.3 0-24 10.7-24 24v16c0 13.3 10.7 24 24 24h192c13.3 0 24-10.7 24-24v-16c0-13.3-10.7-24-24-24h-56v-58.5c61.4-6.5 112.3-48.3 127.6-104.5 33.8-18.6 56.4-54 56.4-94.6C480 102.6 441.4 64 400 64zm-311.6 122c-9-8.4-14.4-20.2-14.4-33.6 0-24.8 20.2-45 45-45h25v116.5c-24.8-5-44.5-20.2-55.6-37.9zm335.2-33.6c0 13.4-5.4 25.2-14.4 33.6-11.1 17.7-30.8 32.9-55.6 37.9V107.4h25c24.8 0 45 20.2 45 45z"/>
</svg>